<svg width="33" height="48" viewBox="0 0 33 48" fill="none" xmlns="http://www.w3.org/2000/svg">
<path d="M21.75 0C23.3125 0 24.7734 0.296875 26.1328 0.890625C27.5078 1.46875 28.7031 2.26563 29.7188 3.28125C30.7344 4.29687 31.5312 5.49219 32.1094 6.86719C32.7031 8.22656 33 9.6875 33 11.25V31.5C33 33.0156 32.8047 34.4766 32.4141 35.8828C32.0234 37.2891 31.4688 38.6094 30.75 39.8438C30.0312 41.0625 29.1719 42.1719 28.1719 43.1719C27.1719 44.1719 26.0547 45.0312 24.8203 45.75C23.6016 46.4688 22.2891 47.0234 20.8828 47.4141C19.4766 47.8047 18.0156 48 16.5 48C14.9844 48 13.5234 47.8047 12.1172 47.4141C10.7109 47.0234 9.39062 46.4688 8.15625 45.75C6.9375 45.0312 5.82812 44.1719 4.82812 43.1719C3.82812 42.1719 2.96875 41.0625 2.25 39.8438C1.53125 38.6094 0.976562 37.2891 0.585938 35.8828C0.195312 34.4766 0 33.0156 0 31.5V11.25C0 9.6875 0.289062 8.22656 0.867188 6.86719C1.46094 5.49219 2.26562 4.29687 3.28125 3.28125C4.29688 2.26563 5.48438 1.46875 6.84375 0.890625C8.21875 0.296875 9.6875 0 11.25 0H21.75ZM30 11.25C30 10.1094 29.7812 9.03906 29.3438 8.03906C28.9219 7.03906 28.3359 6.16406 27.5859 5.41406C26.8359 4.66406 25.9609 4.07812 24.9609 3.65625C23.9609 3.21875 22.8906 3 21.75 3H18V18H15V3H11.25C10.1094 3 9.03906 3.21875 8.03906 3.65625C7.03906 4.07812 6.16406 4.66406 5.41406 5.41406C4.66406 6.16406 4.07031 7.03906 3.63281 8.03906C3.21094 9.03906 3 10.1094 3 11.25V31.5C3 33.3594 3.35156 35.1094 4.05469 36.75C4.77344 38.3906 5.74219 39.8203 6.96094 41.0391C8.17969 42.2578 9.60938 43.2266 11.25 43.9453C12.8906 44.6484 14.6406 45 16.5 45C18.3594 45 20.1094 44.6484 21.75 43.9453C23.3906 43.2266 24.8203 42.2578 26.0391 41.0391C27.2578 39.8203 28.2188 38.3906 28.9219 36.75C29.6406 35.1094 30 33.3594 30 31.5V11.25Z" fill="#106268"/>
</svg>
